<svg width="30" height="30" viewBox="0 0 30 30" fill="none" xmlns="http://www.w3.org/2000/svg">
<path d="M29.75 15C29.75 23.1462 23.1462 29.75 15 29.75C6.8538 29.75 0.25 23.1462 0.25 15C0.25 6.8538 6.8538 0.25 15 0.25C23.1462 0.25 29.75 6.8538 29.75 15Z" stroke="#EEDBB1" strokeWidth="0.5"/>
<path d="M13.8138 20L13.8 15.625H12V13.75H13.8V12.5C13.8 10.813 14.8029 10 16.2476 10C16.9397 10 17.5344 10.0537 17.7078 10.0777V11.8407L16.7058 11.8411C15.9201 11.8411 15.7679 12.2301 15.7679 12.8008V13.75H18L17.4 15.625H15.7679V20H13.8138Z" fill="#EEDBB0"/>
</svg>
