<svg width="30" height="30" viewBox="0 0 30 30" fill="none" xmlns="http://www.w3.org/2000/svg">
<path d="M29.75 15C29.75 23.1462 23.1462 29.75 15 29.75C6.8538 29.75 0.25 23.1462 0.25 15C0.25 6.8538 6.8538 0.25 15 0.25C23.1462 0.25 29.75 6.8538 29.75 15Z" stroke="#EEDBB1" strokeWidth="0.5"/>
<path d="M17.2834 13.5131C17.5753 13.5131 17.812 13.2765 17.812 12.9846C17.812 12.6927 17.5753 12.4561 17.2834 12.4561C16.9915 12.4561 16.7549 12.6927 16.7549 12.9846C16.7549 13.2765 16.9915 13.5131 17.2834 13.5131Z" fill="#EEDBB0"/>
<path fill-rule="evenodd" clip-rule="evenodd" d="M12.7979 15.2462C12.7979 16.4607 13.7856 17.4484 15.0001 17.4484C16.2146 17.4484 17.2023 16.4607 17.2023 15.2462C17.2023 14.0317 16.2146 13.0439 15.0001 13.0439C13.7856 13.0439 12.7979 14.0317 12.7979 15.2462ZM13.8984 15.2461C13.8984 14.6389 14.3923 14.145 14.9996 14.145C15.6068 14.145 16.1007 14.6389 16.1007 15.2461C16.1007 15.8534 15.6068 16.3473 14.9996 16.3473C14.3923 16.3473 13.8984 15.8534 13.8984 15.2461Z" fill="#EEDBB0"/>
<path fill-rule="evenodd" clip-rule="evenodd" d="M12.798 19.6508H17.2024C18.3344 19.6508 19.4047 18.5805 19.4047 17.4485V13.044C19.4047 11.9121 18.3344 10.8418 17.2024 10.8418H12.798C11.666 10.8418 10.5957 11.9121 10.5957 13.044V17.4485C10.5957 18.5805 11.666 19.6508 12.798 19.6508ZM11.6963 13.044C11.6963 12.5292 12.2826 11.9429 12.7974 11.9429H17.2019C17.7167 11.9429 18.303 12.5292 18.303 13.044V17.4485C18.303 17.9633 17.7167 18.5496 17.2019 18.5496H12.7974C12.2727 18.5496 11.6963 17.9732 11.6963 17.4485V13.044Z" fill="#EEDBB0"/>
</svg>
