<svg width="25" height="25" viewBox="0 0 25 25" fill="none" xmlns="http://www.w3.org/2000/svg">
<path d="M8.73375 2.58247L7.8375 2.85247C7.03947 3.09313 6.3268 3.55675 5.78337 4.18877C5.23993 4.82078 4.88835 5.59489 4.77 6.41997C4.39875 9.00497 5.22875 12.0275 7.23 15.4937C9.22625 18.9512 11.4238 21.1787 13.8425 22.1537C14.6197 22.4669 15.4704 22.5504 16.2936 22.3942C17.1168 22.238 17.8779 21.8486 18.4863 21.2725L19.1638 20.63C19.6037 20.2136 19.8775 19.6517 19.9343 19.0486C19.9911 18.4456 19.827 17.8424 19.4725 17.3512L17.7775 15.0012C17.5483 14.684 17.2256 14.4464 16.8547 14.3217C16.4837 14.1971 16.083 14.1917 15.7088 14.3062L13.145 15.09L13.0788 15.1025C12.7963 15.1437 12.1438 14.5325 11.3313 13.125C10.4813 11.6525 10.3063 10.7912 10.54 10.5687L11.8438 9.35247C12.3205 8.90805 12.6462 8.32552 12.7751 7.68662C12.904 7.04771 12.8297 6.38448 12.5625 5.78997L11.735 3.95122C11.4862 3.3979 11.0446 2.95394 10.4927 2.70211C9.9407 2.45028 9.31475 2.40776 8.73375 2.58247ZM10.5975 4.46372L11.4225 6.30247C11.5832 6.65901 11.6281 7.05693 11.551 7.44032C11.4738 7.82371 11.2785 8.1733 10.9925 8.43997L9.685 9.65747C8.8475 10.45 9.125 11.8025 10.25 13.75C11.3075 15.5825 12.2725 16.4875 13.31 16.33L13.465 16.2975L16.075 15.5012C16.1998 15.4629 16.3334 15.4646 16.4571 15.5061C16.5809 15.5475 16.6885 15.6267 16.765 15.7325L18.46 18.0825C18.6375 18.328 18.7197 18.6297 18.6915 18.9314C18.6632 19.233 18.5263 19.5142 18.3063 19.7225L17.6275 20.365C17.1929 20.7763 16.6494 21.0541 16.0616 21.1656C15.4737 21.277 14.8662 21.2174 14.3113 20.9937C12.1888 20.1387 10.1825 18.105 8.31375 14.8687C6.44 11.625 5.68125 8.86622 6.0075 6.59747C6.09195 6.00801 6.34307 5.45495 6.73128 5.0034C7.11948 4.55186 7.62862 4.22063 8.19875 4.04872L9.095 3.77872C9.38557 3.69141 9.69798 3.71276 9.97398 3.83879C10.25 3.96483 10.4707 4.18695 10.595 4.46372" fill="white"/>
</svg>
