<svg width="30" height="30" viewBox="0 0 30 30" fill="none" xmlns="http://www.w3.org/2000/svg">
<path d="M29.75 15C29.75 23.1462 23.1462 29.75 15 29.75C6.8538 29.75 0.25 23.1462 0.25 15C0.25 6.8538 6.8538 0.25 15 0.25C23.1462 0.25 29.75 6.8538 29.75 15Z" stroke="#EEDBB1" strokeWidth="0.5"/>
<path fill-rule="evenodd" clip-rule="evenodd" d="M19.3377 11.752C19.8019 11.8749 20.1676 12.235 20.2922 12.6914C20.5235 13.5245 20.5127 15.2613 20.5127 15.2613C20.5127 15.2613 20.511 16.9886 20.2868 17.8211C20.1605 18.277 19.7933 18.6366 19.3296 18.7589C18.4812 18.977 15.0874 18.9733 15.0874 18.9733C15.0874 18.9733 11.7028 18.9696 10.8459 18.7408C10.3811 18.6179 10.0154 18.2578 9.89083 17.8019C9.66873 16.9774 9.6709 15.2411 9.6709 15.2411C9.6709 15.2411 9.67307 13.5133 9.89679 12.6803C10.0225 12.2244 10.3984 11.8563 10.8535 11.7344C11.7023 11.5158 15.0956 11.5195 15.0956 11.5195C15.0956 11.5195 18.4894 11.5233 19.3377 11.752ZM14.0127 13.6501L14.01 16.8418L16.8334 15.2486L14.0127 13.6501Z" fill="#EEDBB0"/>
</svg>
