<svg width="30" height="30" viewBox="0 0 30 30" fill="none" xmlns="http://www.w3.org/2000/svg">
<path d="M29.75 15C29.75 23.1462 23.1462 29.75 15 29.75C6.8538 29.75 0.25 23.1462 0.25 15C0.25 6.8538 6.8538 0.25 15 0.25C23.1462 0.25 29.75 6.8538 29.75 15Z" stroke="#EEDBB1" strokeWidth="0.5"/>
<path d="M15.8234 14.2344L19.4661 10H18.6028L15.44 13.6766L12.9138 10H10L13.8202 15.5597L10 20H10.8633L14.2034 16.1174L16.8713 20H19.785L15.8232 14.2344H15.8234ZM14.6411 15.6086L14.254 15.055L11.1743 10.6498H12.5002L14.9855 14.205L15.3725 14.7586L18.6032 19.3797H17.2774L14.6411 15.6088V15.6086Z" fill="#EEDBB0"/>
</svg>
